<?xml version="1.0" encoding="UTF-8"?>
<svg id="_圖層_1" data-name="圖層_1" xmlns="http://www.w3.org/2000/svg" version="1.1" xmlns:xlink="http://www.w3.org/1999/xlink" viewBox="0 0 80 82">
  <!-- Generator: Adobe Illustrator 30.0.0, SVG Export Plug-In . SVG Version: 2.1.1 Build 123)  -->
  <defs>
    <style>
      .st0 {
        fill: #fff;
      }

      .st1 {
        filter: url(#drop-shadow-1);
      }

      .st2 {
        fill: none;
        stroke: #c81528;
      }
    </style>
    <filter id="drop-shadow-1" x="0" y="2" width="80" height="80" filterUnits="userSpaceOnUse">
      <feOffset dx="0" dy="2"/>
      <feGaussianBlur result="blur" stdDeviation="2"/>
      <feFlood flood-color="#000" flood-opacity=".3"/>
      <feComposite in2="blur" operator="in"/>
      <feComposite in="SourceGraphic"/>
    </filter>
  </defs>
  <g class="st1">
    <path class="st0" d="M41.17,31.17c-.33-.33-.72-.5-1.17-.5s-.83.17-1.17.5l-9.33,9.33c-.56.56-.69,1.17-.42,1.83.28.67.81,1,1.58,1h18.67c.78,0,1.31-.33,1.58-1,.28-.67.14-1.28-.42-1.83l-9.33-9.33ZM40,6.67c4.61,0,8.94.88,13,2.63,4.06,1.75,7.58,4.13,10.58,7.12,3,3,5.37,6.53,7.12,10.58,1.75,4.06,2.62,8.39,2.63,13,0,4.61-.87,8.94-2.63,13-1.75,4.06-4.13,7.59-7.12,10.58-3,3-6.52,5.37-10.58,7.12-4.06,1.75-8.39,2.63-13,2.63s-8.94-.88-13-2.63c-4.06-1.75-7.59-4.13-10.58-7.12-3-3-5.37-6.53-7.13-10.58-1.76-4.06-2.63-8.39-2.62-13,0-4.61.88-8.94,2.63-13,1.74-4.06,4.12-7.59,7.12-10.58,3-3,6.53-5.37,10.58-7.13,4.05-1.75,8.38-2.63,13-2.62Z"/>
    <path class="st2" d="M40,72.83c-4.54,0-8.81-.86-12.8-2.59-4-1.73-7.48-4.07-10.43-7.02-2.95-2.95-5.29-6.43-7.02-10.43-1.62-3.74-2.48-7.73-2.57-11.95v-.85c0-4.54.86-8.81,2.58-12.8,1.72-4,4.06-7.48,7.02-10.43,2.96-2.95,6.43-5.29,10.43-7.02,3.99-1.72,8.25-2.59,12.8-2.58h0c4.55,0,8.81.86,12.8,2.59,4,1.73,7.47,4.07,10.43,7.02,2.95,2.95,5.29,6.42,7.02,10.43,1.72,3.99,2.58,8.26,2.59,12.8,0,4.54-.86,8.81-2.59,12.8-1.73,4-4.07,7.48-7.02,10.43-2.95,2.95-6.42,5.29-10.43,7.02-3.99,1.72-8.26,2.59-12.8,2.59ZM49.33,43.83c.46,0,.88-.1,1.25-.33.36-.23.63-.57.8-.98.17-.41.23-.84.13-1.26-.09-.42-.33-.79-.65-1.12l-9.33-9.33c-.42-.42-.93-.65-1.52-.65-.59,0-1.1.23-1.52.65l-9.33,9.33c-.33.33-.56.7-.66,1.12-.1.42-.04.85.13,1.26.17.41.43.75.8.98.36.23.79.33,1.25.33h18.67Z"/>
  </g>
</svg>